<?xml version="1.0" encoding="UTF-8"?><svg xmlns="http://www.w3.org/2000/svg" viewBox="0 0 512 512" role="img" aria-label="GenFuture Career signup icon"><defs><radialGradient id="bgGrad" cx="50%" cy="40%" r="60%"><stop offset="0%" stop-color="#2dd4bf"/><stop offset="55%" stop-color="#14b8a6"/><stop offset="100%" stop-color="#1e3a8a"/></radialGradient><linearGradient id="arrowGrad" x1="0" y1="1" x2="1" y2="0"><stop offset="0%" stop-color="#67e8f9"/><stop offset="100%" stop-color="#60a5fa"/></linearGradient><radialGradient id="gloss" cx="30%" cy="18%" r="45%"><stop offset="0%" stop-color="#ffffff" stop-opacity=".6"/><stop offset="60%" stop-color="#ffffff" stop-opacity=".08"/><stop offset="100%" stop-color="#ffffff" stop-opacity="0"/></radialGradient><clipPath id="clipOrb"><circle cx="256" cy="256" r="230"/></clipPath></defs><circle cx="256" cy="256" r="240" fill="url(#bgGrad)"/><g clip-path="url(#clipOrb)"><path d="M140 320 C200 260 260 210 360 160" fill="none" stroke="url(#arrowGrad)" stroke-width="12" stroke-linecap="round" stroke-linejoin="round" opacity=".95"/><polygon points="360,160 346,166 353,151" fill="#60a5fa"/><circle cx="170" cy="292" r="4" fill="#67e8f9" opacity=".9"/><circle cx="205" cy="260" r="3.5" fill="#7dd3fc" opacity=".8"/><circle cx="240" cy="230" r="3" fill="#93c5fd" opacity=".75"/><circle cx="285" cy="200" r="2.8" fill="#bae6fd" opacity=".7"/><circle cx="325" cy="178" r="2.5" fill="#bfdbfe" opacity=".7"/><path d="M210 176c58 0 98 37 98 90 0 15-4 30-12 42-7 11-9 20-8 33-22 0-42 0-64 0-3 0-6 3-6 6v31h-28v-36c0-15-7-24-19-33-22-16-34-39-34-65 0-41 34-68 73-68z" fill="#f1f5f9" opacity=".98"/><g transform="translate(300 228) scale(1)"><circle cx="0" cy="0" r="28" fill="#e2e8f0"/><circle cx="0" cy="0" r="18" fill="#0ea5e9" opacity=".15" stroke="#38bdf8" stroke-width="2"/><g fill="#e2e8f0"><rect x="-2" y="-32" width="4" height="8" rx="1"/><rect x="-2" y="24" width="4" height="8" rx="1" transform="rotate(180)"/><rect x="24" y="-2" width="8" height="4" rx="1"/><rect x="-32" y="-2" width="8" height="4" rx="1"/><rect x="18" y="-22" width="6" height="6" rx="1" transform="rotate(45)"/><rect x="-24" y="16" width="6" height="6" rx="1" transform="rotate(45)"/><rect x="-22" y="-24" width="6" height="6" rx="1" transform="rotate(-45)"/><rect x="16" y="18" width="6" height="6" rx="1" transform="rotate(-45)"/></g><path d="M-6 6c8-10 20-10 28-6-6 10-16 14-28 12z" fill="#22c55e"/><path d="M-10 0c2-10 9-16 20-18 0 10-6 18-20 18z" fill="#16a34a"/><path d="M-6 6c-2-7-2-14 0-21" stroke="#22c55e" stroke-width="2" stroke-linecap="round"/></g><circle cx="114" cy="344" r="3" fill="#22d3ee" opacity=".4"/><circle cx="382" cy="140" r="3" fill="#a5b4fc" opacity=".5"/><circle cx="330" cy="210" r="2" fill="#93c5fd" opacity=".6"/><ellipse cx="140" cy="110" rx="180" ry="100" fill="url(#gloss)"/></g><circle cx="256" cy="256" r="240" fill="none" stroke="#0891b2" stroke-opacity=".35" stroke-width="2"/><path d="M454 458l4-10 10-4-10-4-4-10-4 10-10 4 10 4 4 10z" fill="#e2e8f0" opacity=".7"/></svg>